<svg width="20" height="20" viewBox="0 0 20 20" fill="none" xmlns="http://www.w3.org/2000/svg">
<path d="M14.1971 0H5.8129C2.17108 0 0 2.17 0 5.81V14.18C0 17.83 2.17108 20 5.8129 20H14.1871C17.8289 20 20 17.83 20 14.19V5.81C20.01 2.17 17.8389 0 14.1971 0ZM13.7569 13.75H6.25312C5.84291 13.75 5.50274 13.41 5.50274 13C5.50274 12.59 5.84291 12.25 6.25312 12.25H13.7569C14.1671 12.25 14.5072 12.59 14.5072 13C14.5072 13.41 14.1671 13.75 13.7569 13.75ZM13.7569 7.75H6.25312C5.84291 7.75 5.50274 7.41 5.50274 7C5.50274 6.59 5.84291 6.25 6.25312 6.25H13.7569C14.1671 6.25 14.5072 6.59 14.5072 7C14.5072 7.41 14.1671 7.75 13.7569 7.75Z" fill="#F0F0F0"/>
</svg>
