<svg width="12" height="12" viewBox="0 0 12 12" fill="none" xmlns="http://www.w3.org/2000/svg">
<path d="M8.745 4.79982L2.8 8.3848C2.45 8.5948 2 8.3448 2 7.9348V3.93482C2 2.18982 3.885 1.09982 5.4 1.96982L7.695 3.28982L8.74 3.88982C9.085 4.09482 9.09 4.59482 8.745 4.79982Z" fill="#FDB137"/>
<path d="M9.0444 7.73031L7.0194 8.90031L4.99942 10.0653C4.27442 10.4803 3.45442 10.3953 2.85942 9.97531C2.56942 9.77531 2.60442 9.33031 2.90942 9.15031L9.2644 5.34031C9.5644 5.16031 9.9594 5.33031 10.0144 5.67531C10.1394 6.45031 9.8194 7.28531 9.0444 7.73031Z" fill="#FDB137"/>
</svg>
