<svg width="16" height="16" viewBox="0 0 16 16" fill="none" xmlns="http://www.w3.org/2000/svg">
<path d="M7.99999 1.33337C4.31999 1.33337 1.33333 4.32004 1.33333 8.00004C1.33333 11.68 4.31999 14.6667 7.99999 14.6667C11.68 14.6667 14.6667 11.68 14.6667 8.00004C14.6667 4.32004 11.68 1.33337 7.99999 1.33337ZM7.99999 5.83337C7.72666 5.83337 7.49999 5.60671 7.49999 5.33337C7.49999 5.06004 7.72666 4.83337 7.99999 4.83337C9.74666 4.83337 11.1667 6.25337 11.1667 8.00004C11.1667 9.74671 9.74666 11.1667 7.99999 11.1667C7.72666 11.1667 7.49999 10.94 7.49999 10.6667C7.49999 10.3934 7.72666 10.1667 7.99999 10.1667C9.19333 10.1667 10.1667 9.19337 10.1667 8.00004C10.1667 6.80671 9.19333 5.83337 7.99999 5.83337ZM7.99999 13.1667C5.15333 13.1667 2.83333 10.8467 2.83333 8.00004C2.83333 7.72671 3.05999 7.50004 3.33333 7.50004C3.60666 7.50004 3.83333 7.72671 3.83333 8.00004C3.83333 10.3 5.69999 12.1667 7.99999 12.1667C10.3 12.1667 12.1667 10.3 12.1667 8.00004C12.1667 5.70004 10.3 3.83337 7.99999 3.83337C7.72666 3.83337 7.49999 3.60671 7.49999 3.33337C7.49999 3.06004 7.72666 2.83337 7.99999 2.83337C10.8467 2.83337 13.1667 5.15337 13.1667 8.00004C13.1667 10.8467 10.8467 13.1667 7.99999 13.1667Z" fill="white"/>
</svg>
